<?xml version="1.0" encoding="utf-8"?>
<!-- Generator: Adobe Illustrator 27.5.0, SVG Export Plug-In . SVG Version: 6.00 Build 0)  -->
<svg version="1.1" xmlns="http://www.w3.org/2000/svg" xmlns:xlink="http://www.w3.org/1999/xlink" x="0px" y="0px"
	 viewBox="0 0 650 500" style="enable-background:new 0 0 650 500;" xml:space="preserve">
<g id="BACKGROUND">
	<rect style="fill:#F9F4ED;" width="650" height="500"/>
</g>
<g id="OBJECTS">
	<path style="fill:#EDDAC5;" d="M572.649,296.928c-3.818,59.066-49.124,115.462-110.485,118.96
		c-70.477,5.399-135.167-33.25-205.37-33.659c-35.798-3.069-69.37,10.638-104.256,15.064
		c-78.793,2.892-90.797-89.701-76.103-149.383C138.408-33.459,576.94,4.823,572.649,296.928z"/>
	<g>
		<polygon style="fill:#AF3737;" points="474.823,378.129 408.071,381.544 390.27,500 455.636,500 470.312,409.305 504.155,500 
			568.359,500 534.957,363.686 		"/>
		<g>
			<path style="fill:#6BB2AB;" d="M509.59,372.54c-41.61,31.4-83.23,13.26-83.23,13.26l-14.38-183.98c2.27,2.58,4.76,4.24,7.24,5.27
				c8.16,3.38,16.19-0.12,16.19-0.12c11.45-4.25,15.3-10.83,16.58-14.94l0.35-1.27v-0.04c0.34-1.51,0.47-1.92,0.47-1.92l-1.73-0.13
				l6.82-1.76L509.59,372.54z"/>
			<path style="fill:#F4E9DC;" d="M486.503,212.908c-0.125-1.123-1.323-2.307-2.539-2.026c-19.794,4.579-39.587,9.158-59.381,13.737
				c-5.655,1.308-11.311,2.617-16.966,3.925c-1.207,0.279-2.175,1.204-2.026,2.539c0.125,1.123,1.324,2.307,2.539,2.026
				c19.794-4.579,39.587-9.158,59.381-13.737c5.655-1.308,11.311-2.617,16.966-3.925
				C485.684,215.167,486.652,214.242,486.503,212.908z"/>
			<path style="fill:#F4E9DC;" d="M486.466,233.895c-21.215,7.099-42.429,14.199-63.644,21.298
				c-6.01,2.011-12.019,4.022-18.029,6.033c-2.804,0.938-1.133,5.217,1.669,4.279c21.215-7.1,42.43-14.199,63.644-21.299
				c6.01-2.011,12.019-4.022,18.029-6.033C490.938,237.236,489.268,232.958,486.466,233.895z"/>
			<path style="fill:#F4E9DC;" d="M506.658,269.807c-0.131-1.178-1.312-2.238-2.539-2.026c-24.545,4.253-49.091,8.505-73.636,12.758
				c-6.927,1.2-13.854,2.4-20.781,3.6c-1.221,0.212-2.169,1.254-2.026,2.539c0.131,1.178,1.312,2.238,2.539,2.026
				c24.545-4.253,49.091-8.505,73.636-12.758c6.927-1.2,13.854-2.4,20.781-3.6C505.854,272.134,506.802,271.092,506.658,269.807z"/>
			<path style="fill:#F4E9DC;" d="M508.154,296.105c-0.49-1.256-1.773-1.632-2.974-1.305c-22.821,6.215-45.642,12.43-68.462,18.645
				c-6.478,1.764-12.956,3.528-19.435,5.293c-1.197,0.326-1.722,1.906-1.305,2.974c0.49,1.256,1.773,1.632,2.974,1.305
				c22.821-6.215,45.642-12.43,68.462-18.645c6.478-1.764,12.956-3.529,19.435-5.293
				C508.045,298.754,508.571,297.173,508.154,296.105z"/>
			<path style="fill:#F4E9DC;" d="M508.116,330.891c-21.852,3.076-43.81,5.394-65.824,6.935c-6.182,0.433-12.368,0.803-18.557,1.115
				c-2.95,0.149-2.434,4.713,0.513,4.565c22.04-1.112,44.04-2.987,65.948-5.636c6.152-0.744,12.297-1.55,18.433-2.414
				C511.547,335.045,511.054,330.477,508.116,330.891z"/>
			<path style="fill:#F4E9DC;" d="M514.996,350.441c-23.276,3.54-46.449,7.751-69.479,12.641c-6.496,1.379-12.98,2.813-19.452,4.298
				c-1.208,0.277-2.175,1.206-2.026,2.539c0.125,1.125,1.323,2.305,2.539,2.026c22.947-5.265,46.046-9.867,69.261-13.785
				c6.548-1.105,13.105-2.155,19.67-3.154C518.42,354.564,517.93,349.995,514.996,350.441z"/>
			<path style="fill:#F99958;" d="M634.017,55.761c-4.101,6.626-9.07,12.729-14.744,18.088c-3.053,10.031-7.903,19.516-14.242,27.86
				c-2.424-2.57-10.183-9.664-21.776-9.429c-1.789-6.503-0.458-13.574-1.803-20.229c-1.064-5.285-3.828-10.289-3.734-15.68
				c0.01-0.949,0.178-2.008,0.941-2.566c0.625-0.46,1.504-0.439,2.213-0.124c0.711,0.306,1.276,0.869,1.798,1.439
				c2.917,3.235,4.746,7.264,6.463,11.261c4.873-11.432,11.092-22.291,18.481-32.295c0.559-0.751,1.166-1.535,2.04-1.893
				c0.872-0.35,2.069-0.078,2.39,0.813c0.223,0.593-0.014,1.251-0.245,1.843c-3.215,8.164-6.431,16.336-9.639,24.509l0.047,0.018
				c3.735-7.585,8.174-14.832,13.247-21.603c1.22-1.633,2.497-3.255,4.111-4.512c0.63-0.484,1.42-0.927,2.183-0.711
				c0.747,0.213,1.197,1.012,1.239,1.787c0.052,0.768-0.222,1.528-0.489,2.247c-2.66,7.066-5.788,13.952-8.974,20.793
				c3.872-6.127,7.975-12.113,12.291-17.946c0.782-1.059,2.019-2.243,3.22-1.701c1.003,0.442,1.179,1.791,1.038,2.881
				c-0.327,2.482-1.549,4.738-2.758,6.928c-2.945,5.308-5.973,10.565-9.009,15.821c3.632-4.106,7.884-7.672,12.569-10.518
				c0.558-0.339,1.15-0.68,1.795-0.791c0.654-0.109,1.395,0.052,1.8,0.573C635.172,53.508,634.611,54.798,634.017,55.761z"/>
			<path style="fill:#F2B34E;" d="M411.739,198.813l-3.178-14.76c0,0-8.22,7.458-9.295,17.929c0,0-29.676,23.743-36.831,33.699
				c-7.146,9.956-22.411,79.513-22.521,87.834c-0.175,14.044,56.486,64.091,56.486,64.091c-8.046,9.313-1.708,23.403-1.708,23.403
				c22.475,9.874,41.534,3.398,41.534,3.398L411.739,198.813z M386.355,321.301l13.875-46.503l2.931,73.197L386.355,321.301z"/>
			<path style="fill:#F2B34E;" d="M608.49,97.46c0,0-16.68,73.99-32.34,86.59c-15.66,12.6-54.81,52.31-54.81,52.31l7.15,63.91
				l16,63.26c0,0,7.32,5.77,6.47,18.54c-0.85,12.76-41.53,28.6-41.53,28.6l-21.8-112.35l-35.54-106.63l-1.01-3.02l-10.1-16.23
				c5.23-1.29,16.01,4.01,16.01,4.01l47.67-4.43l45.95-19.65l29.28-60.7c0.55-0.15,1.09-0.29,1.62-0.41
				c12.6-2.87,22.67,3.13,25.89,5.39C608.11,97.15,608.49,97.46,608.49,97.46z"/>
			<path style="fill:#EA8C11;" d="M473.556,222.885c-1.395-10.042-3.926-19.932-7.541-29.405c-2.054-5.384-4.463-10.63-7.205-15.698
				c-0.277-0.513-1.137-0.186-0.856,0.334c4.807,8.886,8.579,18.32,11.243,28.065c2.671,9.769,4.22,19.848,4.614,29.968
				c0.223,5.718,0.067,11.445-0.461,17.143c-0.054,0.586,0.852,0.734,0.907,0.144C475.201,243.268,474.961,232.998,473.556,222.885z
				"/>
			<path style="fill:#EA8C11;" d="M419.858,278.642c-4.811-8.963-8.796-18.362-11.898-28.049
				c-3.101-9.682-5.317-19.644-6.612-29.728c-0.727-5.662-1.16-11.36-1.302-17.066c-0.015-0.59-0.928-0.486-0.913,0.103
				c0.254,10.204,1.448,20.378,3.558,30.364c2.103,9.956,5.1,19.723,8.961,29.139c2.179,5.314,4.635,10.512,7.351,15.572
				C419.279,279.49,420.138,279.163,419.858,278.642z"/>
			<path style="fill:#EA8C11;" d="M519.913,200.367c-0.405,8.048-0.81,16.097-1.215,24.145c-0.115,2.278-0.229,4.556-0.344,6.834
				c-0.029,0.584,0.877,0.734,0.907,0.144c0.405-8.048,0.81-16.097,1.215-24.145c0.115-2.278,0.229-4.556,0.344-6.834
				C520.85,199.926,519.943,199.776,519.913,200.367z"/>
			<path style="fill:#EA8C11;" d="M529.791,205.708c-2.734,7.919-5.118,15.956-7.142,24.085c-0.143,0.573,0.765,0.714,0.907,0.144
				c2.005-8.05,4.364-16.008,7.072-23.849C530.819,205.533,529.984,205.15,529.791,205.708z"/>
			<path style="fill:#EA8C11;" d="M559.79,159.532c-2.025-2.566-4.437-4.813-7.15-6.638c-0.487-0.328-1.073,0.381-0.582,0.711
				c2.649,1.783,5.01,3.96,6.988,6.467C559.413,160.535,560.157,159.997,559.79,159.532z"/>
			<path style="fill:#EA8C11;" d="M400.174,261.265c-0.029,4.539-0.057,9.078-0.086,13.617c-0.004,0.589,0.909,0.483,0.913-0.103
				l0.086-13.617C401.091,260.573,400.178,260.679,400.174,261.265z"/>
			<path style="fill:#F99958;" d="M428.841,404.267c-3.068,1.148-9.552-16.652-9.552-16.652s-3.94,11.545-12.684,14.475
				l-2.691-15.706l-0.184-1.029c0.083-0.055,0.156-0.11,0.23-0.174c5.961-4.767,10.93-10.765,14.53-17.497
				c-0.101-0.138-0.202-0.266-0.303-0.404c0.386,0.239,0.762,0.505,1.139,0.781c2.682,2.021,5.208,5.116,6.806,9.846
				C431.11,392.602,431.909,403.119,428.841,404.267z"/>
			<path style="fill:#EA8C11;" d="M419.436,367.858c-0.037,0.064-0.073,0.138-0.11,0.202c-1.01,1.892-2.122,3.729-3.334,5.502
				c-3.334,4.859-7.43,9.194-12.078,12.822c-1.525,1.185-3.114,2.296-4.748,3.325c-0.138,0.083-0.285,0.083-0.404,0.037
				c-0.11,0.009-0.23-0.018-0.321-0.092c-0.542-0.423-1.084-0.836-1.626-1.258c-0.202-0.156-0.211-0.45-0.064-0.643
				c0.156-0.202,0.459-0.211,0.643-0.064c0.487,0.377,0.974,0.744,1.46,1.121c1.681-1.056,3.316-2.214,4.877-3.453
				c0.083-0.055,0.156-0.11,0.23-0.174c5.961-4.767,10.93-10.765,14.53-17.497c-0.101-0.138-0.202-0.266-0.303-0.404
				c-4.813-6.42-9.828-12.684-15.026-18.783c-0.386-0.45,0.358-0.992,0.744-0.542c5.346,6.264,10.489,12.703,15.412,19.306
				c0.037,0.046,0.046,0.083,0.064,0.129C419.491,367.509,419.537,367.675,419.436,367.858z"/>
			<path style="fill:#EA8C11;" d="M418.394,387.945c-1.623,6.558-6.998,11.217-12.576,14.542c-1.733,1.033-3.519,1.972-5.315,2.889
				c-0.521,0.266-0.194,1.125,0.334,0.856c6.216-3.177,12.572-6.814,16.297-12.95c0.981-1.616,1.714-3.359,2.168-5.194
				C419.443,387.515,418.535,387.375,418.394,387.945z"/>
			<path style="fill:#D36D29;" d="M613.454,57.078c-0.571,1.304-1.045,2.645-1.434,4.014c-0.068,0.239,0.157,0.49,0.382,0.525
				c0.27,0.043,0.457-0.142,0.526-0.382c0.365-1.289,0.825-2.551,1.363-3.778C614.528,56.916,613.691,56.536,613.454,57.078z"/>
			<path style="fill:#D36D29;" d="M618.494,65.279c-5.347-3.141-11.249-5.278-17.366-6.302c-0.583-0.098-0.727,0.809-0.144,0.907
				c6.041,1.011,11.849,3.129,17.13,6.231C618.624,66.415,618.999,65.575,618.494,65.279z"/>
			<path style="fill:#D36D29;" d="M592.469,72.551c-0.752-2.341-1.735-4.592-2.923-6.744c-0.121-0.219-0.457-0.233-0.641-0.102
				c-0.223,0.158-0.221,0.425-0.102,0.641c1.148,2.08,2.084,4.276,2.811,6.538C591.794,73.447,592.649,73.113,592.469,72.551z"/>
			<path style="fill:#D36D29;" d="M601.405,69.654c-0.391-0.437-1.137,0.099-0.743,0.54c3.319,3.712,5.58,8.285,6.476,13.186
				c0.105,0.578,1.02,0.481,0.913-0.103C607.128,78.225,604.831,73.485,601.405,69.654z"/>
			<path style="fill:#EA8C11;" d="M538.397,377.179c-7.677-2.685-14.765-6.939-20.744-12.455c-1.709-1.577-3.32-3.254-4.83-5.022
				c-0.382-0.447-1.128,0.09-0.743,0.54c5.379,6.296,12.038,11.458,19.483,15.087c2.097,1.022,4.253,1.917,6.455,2.686
				C538.572,378.209,538.955,377.374,538.397,377.179z"/>
		</g>
		<g>
			<path style="fill:#AF3737;" d="M433.228,125.832l5.234,13.742l-50.581,19.266l-5.234-13.742
				c-1.458-3.828-2.09-7.578-2.013-11.116c-1.546-0.266-3.032-0.89-4.209-1.916c-1.059-0.923-1.829-2.35-1.255-3.758
				c0.517-1.249,1.697-1.865,2.91-2.268c-1.536-1.116-2.984-2.726-2.036-4.699c0.944-1.961,3.123-2.33,5.106-2.387
				c-1.156-2.105-2.174-4.754-0.483-6.843c0.829-1.023,2.138-1.404,3.425-1.226c1.035,0.137,1.958,0.601,2.842,1.139
				c-0.339-1.896-0.362-4.02,0.294-5.783c0.295-0.8,0.89-1.43,1.779-1.523c0.943-0.104,1.777,0.355,2.492,0.918
				c1.519,1.2,3.051,2.307,4.816,3.149c0.91,0.43,1.853,0.788,2.813,1.091C412.857,105.068,427.429,110.605,433.228,125.832z"/>
			<path style="fill:#F99958;" d="M438.164,148.287c-0.339,0.168-0.693,0.323-1.07,0.467l1.543,4.051
				c1.002,2.655,1.466,5.398,1.423,8.097c-0.037,2.638-0.549,5.241-1.482,7.67l0.003,0.009c-0.257,0.668-0.54,1.316-0.863,1.941
				c-2.398,4.825-6.527,8.796-11.921,10.841c-5.279,2.011-10.879,1.834-15.791-0.069c-0.771-0.296-1.53-0.636-2.264-1.015
				c-2.496-1.29-4.748-3.047-6.616-5.215c-1.635-1.893-2.952-4.085-3.895-6.536l-1.534-4.055c-0.627,0.239-1.244,0.425-1.843,0.555
				c-10.331,2.294-15.59-10.741-12.113-15.545c0.096-0.135,0.204-0.264,0.307-0.382c1.657-1.997,3.589-2.085,5.101-1.678
				c0.885,0.233,1.62,0.641,2.074,0.93l-0.363-13.572c0,0,7.135-0.26,16.593-3.863c1.854-0.706,3.484-1.406,4.915-2.088
				c5.894-2.795,8.376-5.156,8.376-5.156s3.507,3.529,7.202,6.289c0.084,0.066,0.177,0.129,0.249,0.19
				c0.935,0.725,1.816,1.284,2.558,1.709c0.176,0.1,0.34,0.195,0.512,0.287c0.583,0.318,1.135,0.58,1.654,0.756
				c0.059,0.027,0.127,0.05,0.183,0.068c0,0,0.133-0.788,0.569-1.73c0.519-1.141,1.493-2.505,3.218-2.956
				c0.747-0.206,1.63-0.237,2.683,0C443.491,129.579,448.323,143.425,438.164,148.287z"/>
			<path style="fill:#F99958;" d="M452.09,191.69l-0.1,0.34c-1.28,4.11-5.13,10.69-16.58,14.94c0,0-8.03,3.5-16.19,0.12
				c-2.48-1.03-4.97-2.69-7.24-5.27l-0.24-3.01l-1.08-5.02l-2.92-13.51c5.42,2.81,11.95,3.41,18.06,1.08
				c6.1-2.32,10.59-7.08,12.78-12.78l2.4,3.86l10.1,16.23L452.09,191.69z"/>
			<path style="fill:#D36D29;" d="M438.584,168.582c0,0-0.577,23.894-27.922,25.209l-2.915-13.512
				c5.413,2.815,11.944,3.408,18.054,1.081C431.903,179.044,436.387,174.276,438.584,168.582z"/>
			<path style="fill:#D36D29;" d="M420.565,157.477c-2.366,1.329-4.758,2.61-7.171,3.852c-1.208-5.881-2.499-11.744-3.881-17.586
				c-0.146-0.616-1.082-0.317-0.937,0.296c1.428,6.036,2.763,12.094,4.005,18.171c0.07,0.343,0.483,0.394,0.736,0.265
				c2.622-1.339,5.216-2.73,7.783-4.172C421.65,157.992,421.115,157.167,420.565,157.477z"/>
			<circle style="fill:#D36D29;" cx="403.123" cy="162.248" r="3.86"/>
			<circle style="fill:#D36D29;" cx="430.888" cy="148.395" r="3.86"/>
			
				<ellipse transform="matrix(0.8948 -0.4464 0.4464 0.8948 -25.4335 195.1602)" style="fill:#36344C;" cx="401.448" cy="151.554" rx="2.767" ry="3.416"/>
			
				<ellipse transform="matrix(0.8948 -0.4464 0.4464 0.8948 -19.5432 202.774)" style="fill:#36344C;" cx="420.55" cy="142.861" rx="2.767" ry="3.416"/>
			<path style="fill:#36344C;" d="M400.567,143.166c-0.384-0.319-0.88-0.55-1.392-0.508c-0.173,0.03-0.346,0.06-0.52,0.09
				c-0.338,0.108-0.627,0.293-0.866,0.555l-3.4,2.985c-0.346,0.304-0.524,0.954-0.508,1.392c0.018,0.488,0.262,1.068,0.645,1.385
				c0.384,0.319,0.88,0.55,1.393,0.508c0.173-0.03,0.346-0.06,0.52-0.09c0.338-0.108,0.627-0.293,0.866-0.555l3.4-2.985
				c0.346-0.304,0.524-0.954,0.508-1.392C401.194,144.064,400.949,143.484,400.567,143.166z"/>
			<path style="fill:#36344C;" d="M413.561,136.683c-0.024-0.499,0.09-1.034,0.432-1.418c0.128-0.12,0.256-0.241,0.385-0.361
				c0.29-0.205,0.611-0.325,0.964-0.358l4.429-0.921c0.451-0.094,1.077,0.155,1.418,0.432c0.379,0.308,0.695,0.852,0.719,1.348
				c0.024,0.499-0.09,1.034-0.432,1.418c-0.128,0.12-0.256,0.241-0.385,0.361c-0.29,0.205-0.611,0.325-0.964,0.358l-4.429,0.921
				c-0.451,0.094-1.077-0.155-1.418-0.432C413.901,137.724,413.584,137.18,413.561,136.683z"/>
			<path style="fill:#F4E9DC;" d="M430.615,163.99c-0.753,2.728-2.875,4.877-5.612,5.612c-2.296,0.625-5.594,0.312-6.016-2.563
				c-0.413-2.792,2.195-4.602,4.694-4.767c0.009,0,0.018,0.009,0.028,0.009c0.092-1.111,0.413-2.195,0.992-3.16
				c0.689-1.148,1.883-2.259,3.343-2.002C430.982,157.634,431.23,161.721,430.615,163.99z"/>
		</g>
	</g>
	<g>
		<g>
			<path style="fill:#E88846;" d="M111.241,197.015l-8.571,48.032l-70.836-21.186c0,0-21.752-7.439-10.027-34.124
				s31.86-65.175,31.86-65.175s13.929-54.865,18.356-54.987c4.427-0.121,1.698,16.253,1.698,16.253S84.152,57.507,88.64,62.177
				c0,0,1.637-2.244,3.639-1.092s1.092,5.094,1.092,5.094s1.698-3.214,3.881-1.819c2.183,1.395-5.216,42.938-5.216,42.938
				s16.799-8.582,21.408-2.759c2.708,3.421-12.038,7.247-15.799,11.493c-3.76,4.245-14.707,14.282-19.498,14.434l-18.012,60.89
				L111.241,197.015z"/>
			<path style="fill:#C4532C;" d="M73.19,86.095c-0.75,2.813-1.501,5.626-2.251,8.438c-0.152,0.571,0.756,0.71,0.907,0.144
				c0.75-2.813,1.501-5.626,2.251-8.438C74.249,85.668,73.341,85.529,73.19,86.095z"/>
			<path style="fill:#C4532C;" d="M87.623,62.861c-2.643,7.374-5.013,14.845-7.1,22.396c-0.593,2.146-1.163,4.298-1.71,6.456
				c-0.145,0.573,0.763,0.713,0.907,0.144c1.917-7.549,4.111-15.026,6.587-22.411c0.696-2.076,1.414-4.144,2.153-6.205
				C88.658,62.688,87.822,62.305,87.623,62.861z"/>
			<path style="fill:#C4532C;" d="M85.414,93.375c2.731-9.19,5.462-18.379,8.193-27.569c0.168-0.565-0.741-0.703-0.907-0.144
				c-2.731,9.19-5.462,18.379-8.193,27.569c-0.026,0.086-0.02,0.158-0.002,0.224c-2.994-1.194-6.171-1.921-9.399-2.121
				c-0.585-0.036-0.734,0.871-0.144,0.907c4.875,0.301,9.597,1.792,13.762,4.341c0.504,0.308,0.878-0.532,0.38-0.837
				c-1.286-0.787-2.633-1.463-4.017-2.048C85.231,93.653,85.361,93.553,85.414,93.375z"/>
			<path style="fill:#C4532C;" d="M81.887,105.551c-3.45,2.421-6.9,4.842-10.35,7.264c-0.485,0.34,0.056,1.083,0.54,0.743
				c3.45-2.421,6.9-4.842,10.35-7.264C82.912,105.954,82.371,105.211,81.887,105.551z"/>
		</g>
		<g>
			<path style="fill:#E88846;" d="M311.335,463.661c-0.489,4.363-15.341,20.804-16.859,18.919
				c-1.518-1.876,2.792-12.252,2.792-12.252s-10.315,8.369-11.772,6.554c-1.449-1.824,3.761-7.767,3.761-7.767
				s-3.578-0.724-3.395-3.639c0,0-2.243,4.005-5.698,3.639c-3.456-0.358,4.974-18.675,4.974-18.675s-9.704-9.73-2.67-24.94
				l-39.74-135.731l27.794-20.586l17.514,54.54c4.267,13.29,7.321,26.938,9.145,40.779l7.662,58.327
				C304.842,422.83,311.823,459.289,311.335,463.661z"/>
			<path style="fill:#C4532C;" d="M296.216,454.277c-0.549,4.032-2.166,7.876-4.632,11.09c0.511-1.16,0.856-2.423,1.213-3.627
				c0.934-3.153,1.617-6.38,2.035-9.643c0.46-3.587,0.599-7.212,0.431-10.824c-0.027-0.59-0.94-0.487-0.913,0.103
				c0.273,5.89-0.31,11.807-1.728,17.531c-0.351,1.417-0.753,2.822-1.208,4.21c-0.359,1.096-0.678,2.383-1.478,3.257
				c-1.02,1.115-2.298,0.333-2.743-0.884c-0.479-1.311-0.529-2.851-0.721-4.225c-0.479-3.427-0.901-6.862-1.269-10.303
				c-0.063-0.587-0.976-0.487-0.913,0.103c0.368,3.441,0.789,6.876,1.269,10.303c0.204,1.456,0.27,3.066,0.778,4.456
				c0.403,1.103,1.377,2.125,2.638,2.035c0.159-0.011,0.309-0.043,0.454-0.086c-0.225,0.221-0.439,0.453-0.674,0.665
				c-0.435,0.392,0.101,1.139,0.54,0.743c4.247-3.828,7.056-9.089,7.828-14.76C297.203,453.836,296.296,453.69,296.216,454.277z"/>
			<path style="fill:#C4532C;" d="M301.356,454.904c-0.227-0.545-1.084-0.214-0.856,0.334c2.225,5.348-0.929,10.802-3.779,15.204
				c-0.318,0.492,0.39,1.078,0.711,0.582C300.468,466.335,303.721,460.588,301.356,454.904z"/>
		</g>
		<polygon style="fill:#F2B34E;" points="116.173,395.058 107.198,500 174.394,500 185.883,420.211 201.079,500 268.379,500 
			256.147,388.266 		"/>
		<g>
			<path style="fill:#36344C;" d="M210.965,122.017c-0.882,4.344-3.013,8.367-5.235,12.161c-3.297,5.639-7.228,11.123-9.58,17.24
				c0.257,0.147-4.39,3.068-5.897,3.398c-3.72,0.836-7.706,0.321-11.068-1.488c-3.003-1.626-5.447-4.152-6.962-7.201
				c-3.417,2.673-7.476,4.574-11.793,5.208c-7.256,1.075-15.164-1.92-19.04-8.358c-3.435-5.722-2.719-13.658,2.214-18.287
				c-2.489-2.608-4.087-5.933-4.693-9.488c-1.139-6.641,1.295-13.566,6.833-17.543c5.226-3.747,12.436-4.693,18.342-2.039
				c2.324-2.342,5.217-4.069,8.367-5.033c5.823-1.773,12.188-0.937,17.194,2.572c4.629,3.251,7.844,8.468,8.542,14.089
				c3.683-1.626,8.083-0.147,10.535,2.976C211.323,113.53,211.782,118.003,210.965,122.017z"/>
			<path style="fill:#E88846;" d="M199.121,145.776l0.271,4.326c0.174,2.837-0.198,5.594-1.029,8.154
				c-0.816,2.512-2.075,4.849-3.683,6.894l-0.001,0.01c-3.782,4.79-9.475,8.019-15.989,8.427c-6.525,0.417-12.588-2.08-16.927-6.369
				c-2.008-1.97-3.641-4.319-4.784-6.942c-0.997-2.288-1.611-4.774-1.783-7.392l-0.271-4.326
				c-12.318,0.779-13.915-14.687-8.897-18.447c0.132-0.102,0.272-0.193,0.402-0.276c3.448-2.246,6.136,0.297,7.075,1.407
				c0.112-0.025,0.217-0.071,0.323-0.127c6.536-2.606,11.659-8.513,13.315-15.358c3.625,2.583,8.209,3.782,12.64,3.306
				c4.421-0.477,8.65-2.634,11.637-5.93c0.2,5.664,2.613,11.224,6.61,15.242l0.028,0.559c0,0,1.745-3.504,5.007-3.365
				c0.769,0.029,1.622,0.256,2.565,0.793C211.082,129.452,211.448,145.008,199.121,145.776z"/>
			<path style="fill:#E88846;" d="M202.292,188.676c0,0-0.248,0.353-1.01,1.694l-0.018,0.037l-0.707,1.111
				c-2.443,3.555-8.064,8.698-20.262,9.378c0,0-8.698,0.964-15.495-4.675c-2.682-2.232-5.061-5.474-6.494-10.204l1.791,0.083
				l0.459-5.116l1.203-13.768c4.344,4.289,10.406,6.788,16.928,6.374c6.512-0.413,12.207-3.637,15.991-8.432l5.998,22.888
				L202.292,188.676z"/>
			<path style="fill:#C4532C;" d="M194.679,165.159c0,0-7.615,22.655-34.126,15.828l1.21-13.77
				c4.339,4.289,10.403,6.786,16.927,6.369C185.203,173.177,190.897,169.949,194.679,165.159z"/>
			<path style="fill:#C4532C;" d="M180.747,149.222c-2.653,0.571-5.317,1.087-7.989,1.56c0.584-5.975,1.084-11.958,1.491-17.948
				c0.043-0.631-0.94-0.623-0.983,0.005c-0.42,6.189-0.936,12.37-1.546,18.543c-0.034,0.348,0.344,0.519,0.625,0.47
				c2.9-0.504,5.79-1.066,8.668-1.685C181.632,150.036,181.365,149.09,180.747,149.222z"/>
			<path style="fill:#36344C;" d="M187.093,150.492c-0.021,3.881-2.307,7.56-5.754,9.33c-0.563,0.289-0.061,1.135,0.501,0.846
				c3.749-1.925,6.213-5.973,6.236-10.182C188.08,149.854,187.097,149.859,187.093,150.492z"/>
			<circle style="fill:#C4532C;" cx="162.675" cy="148.624" r="3.86"/>
			<circle style="fill:#C4532C;" cx="193.294" cy="143.599" r="3.86"/>
			
				<ellipse transform="matrix(0.9868 -0.162 0.162 0.9868 -20.1673 28.4191)" style="fill:#36344C;" cx="164.236" cy="137.913" rx="2.767" ry="3.416"/>
			
				<ellipse transform="matrix(0.9868 -0.162 0.162 0.9868 -19.462 31.7557)" style="fill:#36344C;" cx="185.055" cy="135.256" rx="2.767" ry="3.416"/>
			<path style="fill:#36344C;" d="M165.874,129.64c-0.273-0.418-0.678-0.786-1.18-0.897c-0.174-0.022-0.349-0.045-0.523-0.067
				c-0.355,0.003-0.685,0.094-0.991,0.274l-4.13,1.847c-0.42,0.188-0.783,0.756-0.897,1.18c-0.127,0.471-0.065,1.098,0.207,1.514
				c0.273,0.418,0.678,0.786,1.18,0.897c0.174,0.022,0.349,0.045,0.523,0.067c0.355-0.003,0.685-0.094,0.991-0.274l4.13-1.847
				c0.42-0.188,0.783-0.756,0.897-1.18C166.208,130.682,166.145,130.056,165.874,129.64z"/>
			<path style="fill:#36344C;" d="M180.204,127.288c0.125-0.484,0.391-0.961,0.831-1.227c0.158-0.077,0.316-0.154,0.474-0.231
				c0.337-0.111,0.679-0.13,1.026-0.057l4.504,0.43c0.458,0.044,0.983,0.466,1.227,0.831c0.271,0.406,0.412,1.019,0.288,1.5
				c-0.125,0.484-0.391,0.961-0.831,1.227c-0.158,0.077-0.316,0.154-0.474,0.231c-0.337,0.111-0.679,0.13-1.026,0.057l-4.504-0.43
				c-0.458-0.044-0.984-0.466-1.227-0.831C180.221,128.382,180.08,127.769,180.204,127.288z"/>
		</g>
		<g>
			<path style="fill:#F4E9DC;" d="M119.111,401.262c0,0,59.41,25.041,141.626,16.275l-5.366-46.788L119.111,401.262z"/>
			<path style="fill:#AF3737;" d="M246.204,314.107l12.49,68.802c0,0-39.365,10.805-70.905,15.903
				c-31.531,5.088-75.737,2.073-75.737,2.073l7.036-75.866l-5.098-64.192l-5.336-10.278l-24.983-7.761l4.85-51.554
				c0,0,30.484-3.922,41.644-5.217c11.159-1.295,28.142,0,28.142,0c1.433,4.73,3.812,7.972,6.494,10.204
				c6.797,5.639,15.495,4.675,15.495,4.675c12.197-0.68,17.818-5.823,20.262-9.378c0.276-0.395,0.514-0.771,0.707-1.111l0.018-0.037
				c0.762-1.341,1.01-1.694,1.01-1.694s38.898,8.013,49.809,24.188c10.921,16.174,23.697,58.544,23.697,58.544l-29.593,19.407
				V314.107z"/>
			<path style="fill:#8E2323;" d="M116.494,256.055c-1.957-8.222-3.398-16.565-4.302-24.968c-0.259-2.406-0.472-4.817-0.645-7.231
				c-0.042-0.589-0.955-0.487-0.913,0.103c0.602,8.43,1.73,16.821,3.391,25.108c0.475,2.373,0.995,4.737,1.555,7.091
				C115.716,256.725,116.631,256.63,116.494,256.055z"/>
			<path style="fill:#8E2323;" d="M110.306,246.772c-2.288-6.217-4.577-12.433-6.865-18.65c-0.204-0.555-1.06-0.222-0.856,0.334
				c2.288,6.217,4.577,12.433,6.865,18.65C109.655,247.66,110.511,247.327,110.306,246.772z"/>
			<path style="fill:#8E2323;" d="M244.579,245.121c-0.121-4.28-0.241-8.561-0.362-12.841c-0.017-0.59-0.93-0.486-0.913,0.103
				l1.286,45.633c0.121,4.28,0.241,8.561,0.362,12.841c0.017,0.59,0.93,0.486,0.913-0.103
				C245.436,275.543,245.008,260.332,244.579,245.121z"/>
			<path style="fill:#8E2323;" d="M223.723,301.381c-9.657,2.683-19.233,5.656-28.709,8.919
				c-9.442,3.251-18.785,6.789-28.013,10.606c-5.22,2.159-10.402,4.409-15.546,6.745c-0.536,0.243-0.206,1.101,0.334,0.856
				c9.125-4.145,18.375-8.015,27.735-11.599c9.326-3.571,18.759-6.859,28.284-9.859c5.388-1.697,10.806-3.3,16.248-4.812
				C224.626,302.079,224.289,301.224,223.723,301.381z"/>
			<path style="fill:#8E2323;" d="M194.467,320.469c-8.588,1.703-17.055,3.993-25.329,6.857c-0.559,0.193-0.225,1.049,0.334,0.856
				c8.2-2.838,16.587-5.112,25.098-6.8C195.145,321.268,195.049,320.353,194.467,320.469z"/>
			<path style="fill:#D36A3C;" d="M216.012,275.934c0.009,2.278-1.598,3.656-3.536,4.491c-2.462,1.065-5.015,1.938-7.522,2.875
				c-10.37,3.894-20.813,7.577-31.329,11.068c-10.507,3.481-21.088,6.769-31.733,9.846c-1.323,0.377-2.636,0.762-3.968,1.139
				c-1.157,0.322-2.315,0.707-3.499,0.946c-1.506,0.303-3.527,0.432-4.749-0.707c-1.809-1.708-0.276-4.124,0.698-5.814
				c1.313-2.259,2.645-4.51,4.005-6.732c0.661-1.084,1.35-2.14,2.021-3.215c4.023-6.824,8.303-13.502,12.849-19.986
				c5.851-8.349,12.124-16.404,18.792-24.11c1.699-1.966,3.426-3.913,5.171-5.832c1.571-1.718,3.104-3.674,5.033-5.006
				c1.819-1.249,3.949-1.534,5.952-0.514c2.094,1.065,3.701,2.985,5.3,4.657c7.109,7.449,13.63,15.458,19.472,23.936
				c1.47,2.149,2.902,4.317,4.289,6.512C214.469,271.415,215.994,273.564,216.012,275.934z"/>
			<circle style="fill:#F2B34E;" cx="163.323" cy="257.572" r="19.959"/>
		</g>
	</g>
	<g>
		<g>
			<path style="fill:#6BB2AB;" d="M386.73,500h-53.249l-14.344-89.742L303.568,500h-49.4c0,0-3.166-57.039,0.245-101.41
				c1.802-23.555,8.747-40.392,14.86-51.01c0,0,4.309,10.342,12.504,13.491c16.531,6.359,36.984,8.095,56.759-21.24l26.257-2.274
				c0.7,0.787,1.382,1.644,2.047,2.571c2.991,4.216,5.536,9.857,7.706,16.443v0.018C387.709,396.648,386.73,500,386.73,500z"/>
			<path style="fill:#389688;" d="M317.733,343.711c-0.088,10.072-0.177,20.143-0.265,30.215c-0.023,2.656-0.047,5.312-0.07,7.968
				c-2.083,0.032-4.167,0.064-6.25,0.095c0.32-9.71,0.64-19.421,0.96-29.131c0.092-2.787,0.184-5.575,0.275-8.362
				c0.019-0.583-0.888-0.734-0.907-0.144c-0.326,9.889-0.652,19.778-0.978,29.667c-0.092,2.787-0.184,5.575-0.276,8.362
				c-0.01,0.317,0.179,0.533,0.505,0.528c2.391-0.036,4.782-0.073,7.173-0.11c0.268-0.004,0.403-0.28,0.405-0.508
				c0.088-10.072,0.177-20.143,0.265-30.215c0.025-2.823,0.05-5.646,0.074-8.469C318.651,343.019,317.738,343.125,317.733,343.711z"
				/>
			<path style="fill:#389688;" d="M314.425,405.374c-5.502-5.668-11.005-11.337-16.507-17.005c-1.568-1.616-3.137-3.231-4.705-4.847
				c-0.412-0.424-0.989,0.291-0.582,0.711c5.502,5.668,11.005,11.337,16.507,17.005c1.568,1.616,3.137,3.231,4.705,4.847
				C314.255,406.509,314.832,405.794,314.425,405.374z"/>
			<path style="fill:#389688;" d="M308.47,405.396c-4.896-1.838-9.876-3.442-14.922-4.813c-0.57-0.155-0.709,0.754-0.144,0.907
				c4.967,1.349,9.867,2.933,14.686,4.742C308.642,406.439,309.024,405.604,308.47,405.396z"/>
		</g>
		<g>
			<path style="fill:#36344C;" d="M411.485,238.873c-4.813,14.236-23.366,13.079-31.412,24.606
				c-17.543,19.821-23.862,5.621-39.862-4.822c-12.308-5.447-28.611,1.323-38.815-9.35c-9.047-12.951,1.874-23.495-13.07-37.171
				c-7.458-10.103,2.82-20.721,4.62-30.934c2.489-13.07,0.367-27.674,7.614-39.449c10.645-17.277,34.774-22.751,49.671-8.624
				c7.229,5.621,8.716,14.558,11.573,22.741c1.984,5.667,5.685,10.581,10.562,14.089c14.126,10.168,9.515,7.844,13.41,28.611
				C394.226,214.46,419.172,212.917,411.485,238.873z"/>
			<path style="fill:#D36D29;" d="M406.24,235.761c-83.774,22.448-109.978-17.176-114.185-24.845
				c-0.184-0.34-0.321-0.634-0.423-0.836c-0.147-0.266-0.202-0.413-0.202-0.413l24.918-2.131l0.018-2.195l0.165-14.108
				c3.995,3.72,9.46,5.878,15.32,5.493c5.309-0.34,10.03-2.7,13.465-6.273l4.464,16.468c7.926,1.148,23.963,3.61,32.983,5.979
				c12.317,3.242,19.857,16.863,19.857,16.863L406.24,235.761z"/>
			<path style="fill:#F2B34E;" d="M352.631,242.295l13.596-32.78l3.201,0.568l-1.179,32.212
				C368.249,242.295,364.121,247.402,352.631,242.295z"/>
			<path style="fill:#AA3617;" d="M345.316,190.457c0,0-7.624,12.066-28.906,11.502l0.124-10.728
				c3.997,3.727,9.461,5.879,15.319,5.498C337.163,196.388,341.884,194.029,345.316,190.457z"/>
			<path style="fill:#D36D29;" d="M350.177,172.579l0.25,3.838c0.371,5.725-1.778,11.058-5.49,14.901
				c-3.284,3.418-7.802,5.676-12.884,6.001c-5.605,0.365-10.834-1.695-14.659-5.261c-3.559-3.303-5.912-7.911-6.243-13.103
				l-0.25-3.838c-10.953,0.705-12.387-13.041-7.934-16.385c3.336-2.506,5.948,0.139,6.72,1.098
				c0.164,0.192,19.365-10.255,26.813-18.047c0.957-1.004,1.885-2.023,2.779-3.084l0.114,0.097c0.239,0.925,0.513,1.837,0.815,2.745
				c1.908,5.77,4.982,11.158,8.973,15.733l0.024,0.331c0,0,2.351-4.765,6.722-2.299c1.001,0.568,1.811,1.606,2.375,2.898
				c0.079,0.185,0.151,0.38,0.222,0.575C360.316,163.838,358.544,172.037,350.177,172.579z"/>
			<path style="fill:#AA3617;" d="M333.14,175.165c-2.396,0.274-4.797,0.499-7.202,0.685c1.037-5.234,2-10.482,2.881-15.744
				c0.093-0.555-0.778-0.633-0.87-0.081c-0.91,5.437-1.904,10.86-2.981,16.266c-0.061,0.305,0.259,0.489,0.512,0.47
				c2.609-0.194,5.214-0.439,7.813-0.736C333.852,175.961,333.698,175.101,333.14,175.165z"/>
			<circle style="fill:#AA3617;" cx="317.208" cy="173.063" r="3.431"/>
			<circle style="fill:#AA3617;" cx="344.727" cy="171.283" r="3.431"/>
			
				<ellipse transform="matrix(0.9979 -0.0646 0.0646 0.9979 -9.9024 20.9672)" style="fill:#36344C;" cx="319.521" cy="163.726" rx="2.459" ry="3.036"/>
			
				<ellipse transform="matrix(0.9979 -0.0646 0.0646 0.9979 -9.8287 22.1696)" style="fill:#36344C;" cx="338.165" cy="163.187" rx="2.459" ry="3.036"/>
			<path style="fill:#36344C;" d="M321.689,156.55c-0.205-0.394-0.531-0.754-0.966-0.896c-0.152-0.035-0.305-0.07-0.457-0.105
				c-0.314-0.028-0.614,0.024-0.9,0.156l-3.814,1.274c-0.388,0.13-0.758,0.601-0.896,0.966c-0.153,0.406-0.153,0.965,0.051,1.357
				c0.205,0.394,0.531,0.754,0.966,0.896c0.152,0.035,0.304,0.07,0.457,0.105c0.314,0.028,0.614-0.024,0.9-0.156l3.814-1.274
				c0.388-0.13,0.758-0.601,0.896-0.966C321.894,157.502,321.893,156.942,321.689,156.55z"/>
			<path style="fill:#36344C;" d="M334.568,155.717c0.153-0.417,0.43-0.816,0.842-1.013c0.146-0.054,0.293-0.109,0.439-0.163
				c0.308-0.068,0.612-0.055,0.913,0.039l3.946,0.772c0.401,0.079,0.829,0.498,1.013,0.842c0.204,0.383,0.276,0.937,0.124,1.352
				c-0.153,0.417-0.43,0.816-0.842,1.013c-0.146,0.054-0.293,0.109-0.439,0.163c-0.308,0.068-0.612,0.055-0.913-0.039l-3.946-0.772
				c-0.401-0.079-0.829-0.498-1.013-0.842C334.488,156.687,334.417,156.132,334.568,155.717z"/>
			<path style="fill:#F4E9DC;" d="M339.214,184.246c-1.595,2.087-4.252,3.098-6.827,2.643c-2.283-0.392-5.664-2.579-4.406-5.336
				c0.984-2.134,3.81-2.017,5.729-1.152c0.368-0.524,0.775-1.015,1.286-1.405c0.989-0.742,2.353-1.046,3.549-0.635
				c1.087,0.371,1.79,1.336,1.875,2.479C340.518,182.075,339.953,183.29,339.214,184.246z"/>
		</g>
		<g>
			<path style="fill:#D36D29;" d="M280.243,278.397l-0.496,34.287c-6.815,13.924-17.406,20.957-28.674,20.022
				c-20.364-1.689-33.957-88.284-33.957-88.274c-0.009-0.009-0.009-0.018-0.018-0.028c-3.444-4.684-5.144-10.415-7.146-15.899
				c-3.003-8.22-6.797-16.147-11.316-23.642c-0.478-0.808-0.974-1.855-0.432-2.618c0.459-0.671,1.433-0.707,2.214-0.496
				c2.094,0.588,3.591,2.397,4.932,4.115c2.691,3.435,5.373,6.87,8.064,10.296c-2.177-7.293-4.289-14.631-5.336-22.163
				c-0.321-2.342-0.533-4.776,0.119-7.054c0.175-0.615,0.496-1.286,1.102-1.47c0.468-0.138,0.974,0.064,1.332,0.404
				c0.358,0.321,0.579,0.771,0.79,1.212c1.212,2.572,2.103,5.29,2.976,8c1.763,5.437,3.527,10.884,5.281,16.331h0.018
				c-1.874-9.01-3.729-18.066-4.096-27.251c-0.028-0.514-0.028-1.047,0.138-1.534c0.184-0.478,0.597-0.918,1.102-0.955
				c0.56-0.055,1.047,0.34,1.424,0.753c0.983,1.093,1.644,2.434,2.223,3.784c1.589,3.692,2.7,7.568,3.812,11.426
				c1.139,3.968,2.287,7.926,3.417,11.885c-1.222-8.661-2.388-17.46-1.121-26.112c0.129-0.845,0.432-1.874,1.277-2.057
				c0.827-0.184,1.543,0.606,1.966,1.341c1.635,2.847,2.204,6.163,2.783,9.387c1.552,8.817,3.343,17.589,5.346,26.305
				c2.572-5.355,5.612-10.48,9.093-15.283c0.423-0.579,0.873-1.176,1.488-1.534c0.606-0.367,1.451-0.441,2.011,0
				c0.716,0.569,0.68,1.644,0.542,2.544c-0.891,5.584-3.444,10.755-4.923,16.211c-1.01,3.738-1.506,7.587-2.489,11.325
				c-0.909,3.49-2.305,6.962-4.675,9.662l14.181,33.019l4.308-10.838C261.938,267.44,269.304,273.015,280.243,278.397z"/>
			<path style="fill:#D36D29;" d="M430.499,323.205c-14.187,10.54-55.953,33.367-55.953,33.367v0.018l0.787,20.362
				c-9.158-1.058-15.403-11.537-15.403-11.537s-2.659,18.751-5.895,18.27c-3.245-0.49-4.636-10.949-2.808-26.352
				c1.819-15.403,15.613-17.204,15.613-17.204l31.324-34.015l-5.965-11.248c8.677-2.335,21.796-7.085,32.187-16.137l7.004,13.357
				C431.391,292.085,444.677,312.674,430.499,323.205z"/>
			<path style="fill:#F4E9DC;" d="M428.949,278.727c-10.391,9.053-23.511,13.802-32.187,16.137
				c-5.563,1.496-9.298,2.003-9.298,2.003l-10.732-14.79l-11.939,55.479l-26.257,2.274c-19.776,29.336-37.354,33.193-59.083,21.928
				c-7.794-4.041-10.181-14.178-10.181-14.178c5.414-9.394,10.181-13.916,10.181-13.916l0.297-20.983l0.49-34.286
				c-10.933-5.379-18.307-10.959-22.741-14.895c-3.647-3.236-5.3-5.37-5.3-5.37s6.245-16.697,14.423-32.423
				c8.187-15.717,24.805-16.041,24.805-16.041s0.061,0.149,0.201,0.42c0.105,0.201,0.245,0.49,0.429,0.831
				c4.207,7.671,30.412,47.293,114.186,24.849L428.949,278.727z"/>
			<path style="fill:#AA3617;" d="M229.603,209.698c-5.909,1.397-11.559,3.69-16.766,6.815c-0.507,0.305,0.036,1.045,0.54,0.743
				c5.061-3.037,10.585-5.287,16.329-6.645C230.273,210.477,230.179,209.562,229.603,209.698z"/>
			<path style="fill:#AA3617;" d="M233.474,239.639c-3.548,1.373-6.943,3.116-10.13,5.194c-0.496,0.324,0.046,1.065,0.54,0.743
				c3.123-2.036,6.447-3.736,9.924-5.081C234.359,240.281,234.027,239.425,233.474,239.639z"/>
			<path style="fill:#AA3617;" d="M267.067,298.743c-4.22-7.847-8.44-15.694-12.66-23.541c-0.276-0.514-1.136-0.187-0.856,0.334
				c4.22,7.847,8.44,15.694,12.66,23.541C266.487,299.591,267.347,299.264,267.067,298.743z"/>
			<path style="fill:#AA3617;" d="M361.2,361.077c-0.264-0.042-0.464,0.14-0.526,0.382c-0.341,1.333-0.681,2.667-1.022,4
				c-0.061,0.241,0.153,0.489,0.382,0.525c0.264,0.042,0.464-0.14,0.525-0.382c0.341-1.333,0.681-2.667,1.022-4
				C361.643,361.362,361.428,361.113,361.2,361.077z"/>
			<path style="fill:#AA3617;" d="M373.203,352.358c-0.958-2.018-1.915-4.035-2.873-6.053c-0.252-0.531-1.11-0.202-0.856,0.334
				c0.958,2.018,1.915,4.035,2.873,6.053C372.599,353.223,373.458,352.894,373.203,352.358z"/>
			<path style="fill:#389688;" d="M378.465,377.212c-7.392-1.481-14.093-5.797-18.509-11.905c-0.347-0.48-1.09,0.06-0.743,0.54
				c3.542,4.899,8.532,8.714,14.184,10.859c1.599,0.607,3.248,1.078,4.924,1.414C378.902,378.235,379.044,377.328,378.465,377.212z"
				/>
			<path style="fill:#E2CAB0;" d="M280.132,249.649c-0.003-0.59-0.916-0.484-0.913,0.103c0.038,8.255,0.077,16.511,0.115,24.766
				c0.003,0.59,0.916,0.484,0.913-0.103C280.209,266.16,280.171,257.905,280.132,249.649z"/>
			<path style="fill:#E2CAB0;" d="M319.997,276.388c-3.355,4.141-8.138,7.073-13.348,8.2c-5.255,1.137-10.756,0.347-15.534-2.099
				c-2.684-1.374-5.099-3.259-7.066-5.546c-0.383-0.446-1.129,0.091-0.743,0.54c3.649,4.245,8.734,7.146,14.24,8.158
				c5.493,1.01,11.198-0.022,16.068-2.726c2.718-1.509,5.136-3.529,7.094-5.945C321.08,276.51,320.369,275.928,319.997,276.388z"/>
			<path style="fill:#E2CAB0;" d="M368.406,276.792c-3.355,4.141-8.138,7.073-13.348,8.2c-5.255,1.137-10.756,0.347-15.534-2.099
				c-2.684-1.374-5.099-3.259-7.066-5.546c-0.383-0.446-1.129,0.091-0.743,0.54c3.649,4.245,8.734,7.146,14.24,8.158
				c5.493,1.01,11.198-0.022,16.068-2.726c2.718-1.509,5.136-3.529,7.094-5.945C369.489,276.914,368.778,276.332,368.406,276.792z"
				/>
			<path style="fill:#E2CAB0;" d="M377.052,280.901c-3.047-5.997-6.385-11.844-10.005-17.513c-0.319-0.499-1.06,0.043-0.743,0.54
				c3.578,5.604,6.881,11.379,9.892,17.307C376.461,281.756,377.32,281.429,377.052,280.901z"/>
			<path style="fill:#E2CAB0;" d="M344.931,328.654c-2.078,2.966-4.156,5.931-6.233,8.897c-0.338,0.482,0.371,1.066,0.711,0.582
				c2.078-2.966,4.156-5.931,6.233-8.897C345.98,328.754,345.271,328.17,344.931,328.654z"/>
			<path style="fill:#E2CAB0;" d="M328.914,344.148c-5.518,6.072-12.304,11.19-20.207,13.659c-7.8,2.436-16.488,2.121-23.654-2.026
				c-3.585-2.075-6.632-5.039-8.68-8.648c-0.292-0.514-1.032,0.031-0.743,0.54c3.8,6.697,10.914,11.065,18.437,12.246
				c8.682,1.363,17.529-1.234,24.821-5.933c3.987-2.569,7.552-5.751,10.737-9.256C330.023,344.291,329.31,343.712,328.914,344.148z"
				/>
			<path style="fill:#AA3617;" d="M403.547,302.776c-0.157-0.216-0.428-0.229-0.641-0.102c-1.394,0.827-2.787,1.653-4.181,2.48
				c-0.213,0.127-0.238,0.454-0.102,0.641c0.157,0.216,0.427,0.229,0.642,0.102c1.394-0.827,2.787-1.653,4.181-2.48
				C403.659,303.291,403.683,302.964,403.547,302.776z"/>
		</g>
		<path style="fill:#EDDAC5;" d="M350.514,205.912c-7.556,6.311-18.075,8.233-27.349,4.887c-2.608-0.941-5.063-2.261-7.284-3.92
			c-0.473-0.354-1.056,0.356-0.582,0.711c8.198,6.126,19.241,7.481,28.649,3.43c2.564-1.104,4.963-2.576,7.105-4.365
			C351.506,206.277,350.969,205.532,350.514,205.912z"/>
		<circle style="fill:#F2B34E;" cx="331.8" cy="217.233" r="4.362"/>
	</g>
</g>
</svg>
